# xmcd
# 
# Track frame offsets:
#     150
#     17493
#     32545
#     47402
#     64269
#     79362
#     89194
#     105504
#     123017
#     143220
#     158018
#     175463
# 
# Disc length: 2563
# 
# Revision: 1
# Processed by: cddbd v1.5.2PL0 Copyright (c) Steve Scherf et al.
# Submitted via: fre:ac v1.0.27
# 
DISCID=960a010c
DTITLE=Durand Jones and The Indications - American Love Call
DYEAR=2019
DGENRE=R&B
TTITLE0=Morning In America
TTITLE1=Don't You Know
TTITLE2=Circles
TTITLE3=Court Of Love
TTITLE4=Long Way Home
TTITLE5=Too Many Tears
TTITLE6=Walk Away
TTITLE7=What I Know About You
TTITLE8=Listen To Your Heart
TTITLE9=Sea Gets Hotter
TTITLE10=How Can I Be Sure?
TTITLE11=True Love
EXTD=
EXTT0=
EXTT1=
EXTT2=
EXTT3=
EXTT4=
EXTT5=
EXTT6=
EXTT7=
EXTT8=
EXTT9=
EXTT10=
EXTT11=
PLAYORDER=
